Coordinates
version=1
nRows=5
nColumns=40
inDegrees=yes

Units are S.I. units (second, meters, Newtons, ...)
Angles are in degrees.

endheader
time	pelvis_tilt	pelvis_list	pelvis_rotation	pelvis_tx	pelvis_ty	pelvis_tz	hip_flexion_r	hip_adduction_r	hip_rotation_r	knee_angle_r	knee_angle_r_beta	ankle_angle_r	subtalar_angle_r	mtp_angle_r	hip_flexion_l	hip_adduction_l	hip_rotation_l	knee_angle_l	knee_angle_l_beta	ankle_angle_l	subtalar_angle_l	mtp_angle_l	lumbar_extension	lumbar_bending	lumbar_rotation	arm_flex_r	arm_add_r	arm_rot_r	elbow_flex_r	pro_sup_r	wrist_flex_r	wrist_dev_r	arm_flex_l	arm_add_l	arm_rot_l	elbow_flex_l	pro_sup_l	wrist_flex_l	wrist_dev_l
     11.98000000	     -1.51797258	     -4.48280042	      1.28721667	      1.00507801	      0.93598103	      0.52538394	      7.93600242	      4.04241421	    -16.37857758	     13.62309896	     13.62309896	     10.24702826	      5.27365664	     -5.21193933	     27.99370361	    -13.50217270	     -0.91745087	     58.74315271	     58.74315271	     11.29554604	    -18.53272048	     13.71632519	    -10.15766240	      5.97992912	      1.65717715	     19.64006197	    -20.15744139	     -6.79973693	     56.56088581	     45.12825008	      0.00000000	      0.00000000	      3.42861401	     -9.27222094	      1.12828574	     30.80409091	     44.90703237	      0.00000000	      0.00000000
     11.99350000	     -1.72037703	     -4.48494854	      1.64932230	      1.00401721	      0.93594796	      0.52598908	      7.67392441	      4.12390395	    -16.57678183	     13.33131158	     13.33131158	     10.42012659	      5.25894881	     -5.25440260	     28.98845569	    -13.50866353	     -1.13943265	     56.21881979	     56.21881979	     11.52717741	    -18.50060833	     13.92832769	     -9.99559061	      5.99718973	      2.12586398	     20.81952252	    -20.65112714	     -7.01477142	     57.13862048	     45.12432802	      0.00000000	      0.00000000	      2.33465661	     -8.70296243	      1.21224478	     30.43986291	     44.88154752	      0.00000000	      0.00000000
     12.00700000	     -1.72147017	     -4.43139864	      2.04781132	      1.00321607	      0.93636647	      0.52647218	      6.77013622	      4.24701973	    -16.97618255	     12.23922245	     12.23922245	     10.35711174	      5.88917959	     -5.39688840	     29.47486230	    -13.32593860	     -1.31789473	     53.24553847	     53.24553847	     11.39476253	    -18.56716227	     13.68537682	    -10.10489741	      5.99340079	      1.81784406	     22.34561937	    -20.42442875	     -7.34079355	     58.87963948	     45.09365103	      0.00000000	      0.00000000	      0.85401579	     -8.31778667	      1.34620599	     29.81667772	     44.86700824	      0.00000000	      0.00000000
     12.02050000	     -1.83704412	     -4.31316198	      2.39128491	      1.00227283	      0.93647209	      0.52684764	      6.30366935	      4.22003631	    -17.20042448	     11.73920455	     11.73920455	     10.46155657	      6.05557204	     -5.51608163	     29.91573735	    -12.99742693	     -1.50901867	     50.05040541	     50.05040541	     11.27420879	    -18.46108456	     13.78441666	    -10.08226341	      5.87432135	      2.04220710	     23.57203408	    -20.67175920	     -7.58734696	     59.76976975	     45.08311794	      0.00000000	      0.00000000	     -0.29065697	     -7.87160632	      1.47588881	     29.36894638	     44.84165816	      0.00000000	      0.00000000
     12.03400000	     -1.93211035	     -4.26729503	      2.72734618	      1.00131186	      0.93647829	      0.52708775	      5.80078981	      4.26581352	    -17.51542873	     11.19592221	     11.19592221	     10.53106816	      6.37512797	     -5.67697260	     30.20913216	    -12.62800906	     -1.52752591	     46.69459739	     46.69459739	     11.05882096	    -18.20282393	     13.69915111	    -10.10030208	      5.86930205	      2.13431199	     24.87519002	    -20.78807861	     -7.85704921	     60.79293154	     45.06968227	      0.00000000	      0.00000000	     -1.43191737	     -7.45252501	      1.65280753	     28.85519467	     44.81006964	      0.00000000	      0.00000000
